# xmcd CD database file
#
# Track frame offsets:
#	150
#	23762
#	50307
#	77185
#	109712
#	142765
#	176465
#
# Disc length: 2755 seconds
#
# Revision: 0
# Processed by: cddbd v1.4PL0 Copyright (c) Steve Scherf et al.
# Submitted via: CDex 1.50
#
DISCID=4b0ac107
DTITLE=Jackie Mc Lean - Jackie Mclean Septet - Fire and Love
DYEAR=1997
DGENRE=Jazz
TTITLE0=Mr. E
TTITLE1=Optimism
TTITLE2=Cryptography
TTITLE3=The Griot
TTITLE4=Entrapment
TTITLE5=Excusrions
TTITLE6=Rites Of Passage
EXTD=YEAR: 1997
EXTT0=
EXTT1=
EXTT2=
EXTT3=
EXTT4=
EXTT5=
EXTT6=
PLAYORDER=
